<?xml version="1.0" encoding="UTF-8"?>
<svg id="Logo" xmlns="http://www.w3.org/2000/svg" version="1.1" xmlns:xlink="http://www.w3.org/1999/xlink" viewBox="0 0 1471.1 427.2">
  <defs>
    <style>
      .cls-1 {
        fill: #ab121a;
      }

      .cls-1, .cls-2, .cls-3, .cls-4, .cls-5, .cls-6, .cls-7, .cls-8, .cls-9, .cls-10, .cls-11, .cls-12, .cls-13 {
        stroke-width: 0px;
      }

      .cls-2 {
        fill: url(#linear-gradient);
      }

      .cls-3 {
        fill: url(#linear-gradient-6);
      }

      .cls-4 {
        fill: url(#linear-gradient-5);
      }

      .cls-5 {
        fill: none;
      }

      .cls-6 {
        fill: url(#linear-gradient-2);
      }

      .cls-7 {
        fill: url(#linear-gradient-7);
      }

      .cls-8 {
        fill: url(#linear-gradient-3);
      }

      .cls-14 {
        clip-path: url(#clippath);
      }

      .cls-9 {
        fill: url(#linear-gradient-9);
      }

      .cls-10 {
        fill: #262626;
      }

      .cls-11 {
        fill: url(#linear-gradient-8);
      }

      .cls-12 {
        fill: url(#linear-gradient-10);
      }

      .cls-13 {
        fill: url(#linear-gradient-4);
      }
    </style>
    <clipPath id="clippath">
      <path class="cls-5" d="M447.9,189.5c0-6.3-5.1-11.4-11.4-11.4h-93.4s3.5,12.6,12.9,12.6h-12.9l36.9,31.4-97.7-58.5L0,0l50.5,80.1,207.7,110.7h-.5L14,89.8l37.2,56.4,191,71.9L24.8,171.3l46.6,41.7,157.8,35.7-178.3-12.9,42.7,27.7,132.9,20.6h0c0,0-87.3,22.5-87.3,22.5l-38.4,120.6,258.5-157.9,80.8-49.2c12.2-7.8,22.3-13.8,35.5-2.6,1.9-4.3,3.4-28.1-27.6-28.1ZM425.2,191.5l-14.2-5.2h21.6l-7.4,5.2Z"/>
    </clipPath>
    <linearGradient id="linear-gradient" x1="7.7" y1="-739.9" x2="-95.6" y2="-874" gradientTransform="translate(0 855.5)" gradientUnits="userSpaceOnUse">
      <stop offset="0" stop-color="#dd230a"/>
      <stop offset="1" stop-color="#c80f00"/>
    </linearGradient>
    <linearGradient id="linear-gradient-2" x1="-.6" y1="-980.3" x2="169.6" y2="-821.3" gradientTransform="translate(0 855.5)" gradientUnits="userSpaceOnUse">
      <stop offset="0" stop-color="#dd230a"/>
      <stop offset="1" stop-color="#c80f00"/>
    </linearGradient>
    <linearGradient id="linear-gradient-3" x1="339.3" y1="-565.4" x2="271.8" y2="-852.4" gradientTransform="translate(0 855.5)" gradientUnits="userSpaceOnUse">
      <stop offset="0" stop-color="#dd230a"/>
      <stop offset="1" stop-color="#ab1a00"/>
    </linearGradient>
    <linearGradient id="linear-gradient-4" x1="99.3" y1="-655.3" x2="357.3" y2="-866.7" gradientTransform="translate(0 855.5)" gradientUnits="userSpaceOnUse">
      <stop offset="0" stop-color="#e22007"/>
      <stop offset="1" stop-color="#d60000"/>
    </linearGradient>
    <linearGradient id="linear-gradient-5" x1="-124.9" y1="-599.1" x2="82" y2="-540.3" gradientTransform="translate(0 855.5)" gradientUnits="userSpaceOnUse">
      <stop offset="0" stop-color="#cf1307"/>
      <stop offset="1" stop-color="#b50000"/>
    </linearGradient>
    <linearGradient id="linear-gradient-6" x1="-135.7" y1="-436" x2="23" y2="-711" gradientTransform="translate(0 855.5)" gradientUnits="userSpaceOnUse">
      <stop offset="0" stop-color="#e81b06"/>
      <stop offset="1" stop-color="#cc0600"/>
    </linearGradient>
    <linearGradient id="linear-gradient-7" x1="568" y1="-509.4" x2="52.7" y2="-549.2" gradientTransform="translate(0 855.5)" gradientUnits="userSpaceOnUse">
      <stop offset="0" stop-color="#e22007"/>
      <stop offset="1" stop-color="#d60000"/>
    </linearGradient>
    <linearGradient id="linear-gradient-8" x1="277.4" y1="-373.6" x2="294.9" y2="-638.8" gradientTransform="translate(0 855.5)" gradientUnits="userSpaceOnUse">
      <stop offset="0" stop-color="#c30d02"/>
      <stop offset="1" stop-color="#b70000"/>
    </linearGradient>
    <linearGradient id="linear-gradient-9" x1="57.6" y1="-242.5" x2="-17.7" y2="-356.4" gradientTransform="translate(0 855.5)" gradientUnits="userSpaceOnUse">
      <stop offset="0" stop-color="#b40605"/>
      <stop offset="1" stop-color="#910000"/>
    </linearGradient>
    <linearGradient id="linear-gradient-10" x1="551.9" y1="-301.5" x2="36.6" y2="-341.4" gradientTransform="translate(0 855.5)" gradientUnits="userSpaceOnUse">
      <stop offset="0" stop-color="#b4110a"/>
      <stop offset="1" stop-color="#910000"/>
    </linearGradient>
  </defs>
  <path class="cls-10" d="M392.7,340.8c12.2-4,20-16.9,20-29,0-20-13-34.9-36.7-34.9h-9.4l-29.5,18.5v86.5h20.1v-86h18.8c9.9,0,16.6,7,16.6,16s-6.2,15.7-17.4,15.7h-11.6l30.1,54.4h22.3l-23.3-41.1Z"/>
  <path class="cls-10" d="M430.4,276.9h66v18.9h-45.9v23.9h43.4v18.1h-43.4v25.1h48.7l-5.3,18.9h-63.6v-105h0Z"/>
  <path class="cls-10" d="M514.7,276.9h35.7c32.7,0,54.9,21.4,54.9,52.6s-22,52.4-53.3,52.4h-3.1l-5.4-18.9h6.8c20.3,0,34.4-13.5,34.4-33.6s-14.1-33.5-34.4-33.5h-15.3v86h-20.2v-105Z"/>
  <path class="cls-10" d="M657.3,276.9h66v18.9h-45.9v23.9h43.4v18.1h-43.4v25.1h48.7l-5.3,18.9h-63.6v-105h0Z"/>
  <path class="cls-10" d="M780.1,275.8h6.4l50.5,106h-22l-9.2-20.2h-45.3l-9.2,20.2h-21.5l50.2-106ZM797.8,343.7l-14.6-32.2-14.6,32.2h29.1Z"/>
  <path class="cls-10" d="M836.4,329.3c0-30.5,23.7-52.4,56.3-52.4h25.3v18.9h-24.5c-20.9,0-36.4,13.2-36.4,33.5s15.5,33.6,36.4,33.6h5.7v-37h20.2v56h-26.7c-32.7,0-56.3-21.7-56.3-52.6Z"/>
  <path class="cls-10" d="M937.6,276.9h20.2v86h46.2l-5.3,18.9h-61.1v-105h0Z"/>
  <path class="cls-10" d="M1016.5,276.9h66.1v18.9h-45.9v23.9h43.4v18.1h-43.4v25.1h48.7l-5.3,18.9h-63.6v-105h0Z"/>
  <path class="cls-1" d="M1153.9,294h-29.5v-18.9h79.1v18.9h-29.6v86h-20v-86Z"/>
  <path class="cls-1" d="M1217,275.1h66.1v18.9h-45.9v23.9h43.4v18.1h-43.4v25.1h48.7l-5.3,18.9h-63.6v-105h0Z"/>
  <path class="cls-1" d="M1296,327.5c0-30.7,23.6-52.4,56.3-52.4h13.8v18.9h-13c-20.9,0-36.4,13.2-36.4,33.5s15.5,33.6,36.4,33.6h14.9l-5.3,18.9h-10.4c-32.7,0-56.3-21.7-56.3-52.5Z"/>
  <path class="cls-1" d="M1382.2,380.1v-105h20.2v42.6h48.5v-42.6h20.2v105h-20.2v-43.4h-48.5v43.4h-20.2Z"/>
  <g class="cls-14">
    <g>
      <path class="cls-2" d="M-110.7-6.9L59.5,151.6-7.3,127.1-110.7-6.9h0Z"/>
      <polygon class="cls-6" points="275.2 -54.1 -110.7 -6.9 59.5 151.6 311.4 -54.1 275.2 -54.1"/>
      <polygon class="cls-8" points="517.7 -2.4 506 -51.9 506 -51.9 59.5 151.6 517.7 226 517.7 -2.4"/>
      <polygon class="cls-13" points="311.4 -54.1 59.5 151.6 506 -51.9 449.5 -54.1 311.4 -54.1"/>
      <path class="cls-4" d="M59.5,151.6l-225.8,250.3,207,58.6,18.8-308.9h0Z"/>
      <path class="cls-3" d="M59.5,151.6l-225.8,250.3L-7.3,127.1h0l66.8,24.5Z"/>
      <polygon class="cls-7" points="517.7 473.4 59.5 151.6 59.5 151.6 40.7 460.5 517.7 497.3 517.7 473.4"/>
      <polygon class="cls-11" points="517.7 226 59.5 151.6 517.7 473.4 517.7 226"/>
      <path class="cls-9" d="M-166.2,401.9l282.4,172.4-75.4-113.7h0l-207-58.6Z"/>
      <polygon class="cls-12" points="517.7 497.3 40.7 460.5 116.2 574.3 517.7 506.8 517.7 497.3"/>
    </g>
  </g>
</svg>